<svg width="100" height="100" viewBox="0 0 100 100" fill="#222222"
  xmlns="http://www.w3.org/2000/svg">
  <path fill-rule="evenodd" clip-rule="evenodd" d="M50.8184 58.2319L68.8158 89.4853C69.0992 89.9775 69.7269 90.1461 70.2178 89.862L75.5507 86.775C76.0415 86.4909 76.2097 85.8615 75.9263 85.3694L57.9037 54.0721H87.9737C88.5405 54.0721 89 53.6114 89 53.0431V46.8692C89 46.3009 88.5405 45.8402 87.9737 45.8402H57.9542L75.9263 14.6306C76.2097 14.1385 76.0415 13.5091 75.5507 13.225L70.2178 10.138C69.7269 9.85388 69.0992 10.0225 68.8158 10.5147L50.8184 41.7681L32.8211 10.5147C32.5376 10.0225 31.91 9.85388 31.4191 10.138L26.0862 13.225C25.5953 13.5091 25.4271 14.1385 25.7105 14.6306L43.6826 45.8402H12.0263C11.4595 45.8402 11 46.3009 11 46.8692V53.0431C11 53.6114 11.4595 54.0721 12.0263 54.0721H43.7332L25.7105 85.3694C25.4271 85.8615 25.5953 86.4909 26.0862 86.775L31.4191 89.862C31.91 90.1461 32.5376 89.9775 32.8211 89.4853L50.8184 58.2319Z" />
</svg>
